# xmcd
#
# Track frame offsets: 
#        150
#        15462
#        35432
#        55035
#
# Disc length: 980 seconds
#
# Revision: 0
# Processed by: cddbd v1.5.2PL0 Copyright (c) Steve Scherf et al.
# Submitted via: ExactAudioCopy v0.99pb5
#
DISCID=2403d204
DTITLE=Eddie Murphy - Put Your Mouth on Me [CD Maxi)
DYEAR=1989
DGENRE=R&B
TTITLE0=Put Your Mouth on Me (7'' Edited Version)
TTITLE1=Put Your Mouth on Me (12'' Version)
TTITLE2=Put Your Mouth on Me (Club Mix)
TTITLE3=Put Your Mouth on Me (Pic's Mix)
EXTD=
EXTT0=
EXTT1=
EXTT2=
EXTT3=
PLAYORDER=
